M48
;GenerationSoftware,Autodesk,EAGLE,9.1.0*%
;CreationDate,2018-12-10T23:06:02Z*%
FMAT,2
ICI,OFF
METRIC,TZ,000.000
T3C0.650
T2C1.000
T1C3.048
%
G90
M71
T1
X3810Y48260
X45720Y48260
X45720Y3810
X3810Y3810
T2
X13970Y5080
X16510Y5080
X5080Y34925
X5080Y32385
X5080Y29845
X5080Y27305
X5080Y24765
X5080Y22225
X5080Y19685
X5080Y17145
X26670Y5080
X29210Y5080
X39370Y5080
X41910Y5080
X36830Y46990
X34290Y46990
X24130Y46990
X21590Y46990
X11430Y46990
X8890Y46990
T3
X17780Y13970
X30480Y13970
X43180Y13970
X33020Y38100
X20320Y38100
X7620Y38100
M30