G04 EAGLE Gerber X2 export*
%TF.Part,Single*%
%TF.FileFunction,Profile,NP*%
%TF.FilePolarity,Positive*%
%TF.GenerationSoftware,Autodesk,EAGLE,9.1.0*%
%TF.CreationDate,2018-12-10T23:06:03Z*%
G75*
%MOMM*%
%FSLAX34Y34*%
%LPD*%
%AMOC8*
5,1,8,0,0,1.08239X$1,22.5*%
G01*
%ADD10C,0.254000*%


D10*
X12700Y12700D02*
X482475Y12700D01*
X482475Y507900D01*
X12700Y507900D01*
X12700Y12700D01*
X53340Y482056D02*
X53262Y480970D01*
X53107Y479892D01*
X52876Y478829D01*
X52569Y477784D01*
X52189Y476764D01*
X51737Y475774D01*
X51215Y474819D01*
X50626Y473903D01*
X49974Y473031D01*
X49261Y472209D01*
X48491Y471439D01*
X47669Y470726D01*
X46797Y470074D01*
X45881Y469485D01*
X44926Y468963D01*
X43936Y468511D01*
X42916Y468131D01*
X41871Y467824D01*
X40808Y467593D01*
X39730Y467438D01*
X38644Y467360D01*
X37556Y467360D01*
X36470Y467438D01*
X35392Y467593D01*
X34329Y467824D01*
X33284Y468131D01*
X32264Y468511D01*
X31274Y468963D01*
X30319Y469485D01*
X29403Y470074D01*
X28531Y470726D01*
X27709Y471439D01*
X26939Y472209D01*
X26226Y473031D01*
X25574Y473903D01*
X24985Y474819D01*
X24463Y475774D01*
X24011Y476764D01*
X23631Y477784D01*
X23324Y478829D01*
X23093Y479892D01*
X22938Y480970D01*
X22860Y482056D01*
X22860Y483144D01*
X22938Y484230D01*
X23093Y485308D01*
X23324Y486371D01*
X23631Y487416D01*
X24011Y488436D01*
X24463Y489426D01*
X24985Y490381D01*
X25574Y491297D01*
X26226Y492169D01*
X26939Y492991D01*
X27709Y493761D01*
X28531Y494474D01*
X29403Y495126D01*
X30319Y495715D01*
X31274Y496237D01*
X32264Y496689D01*
X33284Y497069D01*
X34329Y497376D01*
X35392Y497607D01*
X36470Y497762D01*
X37556Y497840D01*
X38644Y497840D01*
X39730Y497762D01*
X40808Y497607D01*
X41871Y497376D01*
X42916Y497069D01*
X43936Y496689D01*
X44926Y496237D01*
X45881Y495715D01*
X46797Y495126D01*
X47669Y494474D01*
X48491Y493761D01*
X49261Y492991D01*
X49974Y492169D01*
X50626Y491297D01*
X51215Y490381D01*
X51737Y489426D01*
X52189Y488436D01*
X52569Y487416D01*
X52876Y486371D01*
X53107Y485308D01*
X53262Y484230D01*
X53340Y483144D01*
X53340Y482056D01*
X472440Y482056D02*
X472362Y480970D01*
X472207Y479892D01*
X471976Y478829D01*
X471669Y477784D01*
X471289Y476764D01*
X470837Y475774D01*
X470315Y474819D01*
X469726Y473903D01*
X469074Y473031D01*
X468361Y472209D01*
X467591Y471439D01*
X466769Y470726D01*
X465897Y470074D01*
X464981Y469485D01*
X464026Y468963D01*
X463036Y468511D01*
X462016Y468131D01*
X460971Y467824D01*
X459908Y467593D01*
X458830Y467438D01*
X457744Y467360D01*
X456656Y467360D01*
X455570Y467438D01*
X454492Y467593D01*
X453429Y467824D01*
X452384Y468131D01*
X451364Y468511D01*
X450374Y468963D01*
X449419Y469485D01*
X448503Y470074D01*
X447631Y470726D01*
X446809Y471439D01*
X446039Y472209D01*
X445326Y473031D01*
X444674Y473903D01*
X444085Y474819D01*
X443563Y475774D01*
X443111Y476764D01*
X442731Y477784D01*
X442424Y478829D01*
X442193Y479892D01*
X442038Y480970D01*
X441960Y482056D01*
X441960Y483144D01*
X442038Y484230D01*
X442193Y485308D01*
X442424Y486371D01*
X442731Y487416D01*
X443111Y488436D01*
X443563Y489426D01*
X444085Y490381D01*
X444674Y491297D01*
X445326Y492169D01*
X446039Y492991D01*
X446809Y493761D01*
X447631Y494474D01*
X448503Y495126D01*
X449419Y495715D01*
X450374Y496237D01*
X451364Y496689D01*
X452384Y497069D01*
X453429Y497376D01*
X454492Y497607D01*
X455570Y497762D01*
X456656Y497840D01*
X457744Y497840D01*
X458830Y497762D01*
X459908Y497607D01*
X460971Y497376D01*
X462016Y497069D01*
X463036Y496689D01*
X464026Y496237D01*
X464981Y495715D01*
X465897Y495126D01*
X466769Y494474D01*
X467591Y493761D01*
X468361Y492991D01*
X469074Y492169D01*
X469726Y491297D01*
X470315Y490381D01*
X470837Y489426D01*
X471289Y488436D01*
X471669Y487416D01*
X471976Y486371D01*
X472207Y485308D01*
X472362Y484230D01*
X472440Y483144D01*
X472440Y482056D01*
X472440Y37556D02*
X472362Y36470D01*
X472207Y35392D01*
X471976Y34329D01*
X471669Y33284D01*
X471289Y32264D01*
X470837Y31274D01*
X470315Y30319D01*
X469726Y29403D01*
X469074Y28531D01*
X468361Y27709D01*
X467591Y26939D01*
X466769Y26226D01*
X465897Y25574D01*
X464981Y24985D01*
X464026Y24463D01*
X463036Y24011D01*
X462016Y23631D01*
X460971Y23324D01*
X459908Y23093D01*
X458830Y22938D01*
X457744Y22860D01*
X456656Y22860D01*
X455570Y22938D01*
X454492Y23093D01*
X453429Y23324D01*
X452384Y23631D01*
X451364Y24011D01*
X450374Y24463D01*
X449419Y24985D01*
X448503Y25574D01*
X447631Y26226D01*
X446809Y26939D01*
X446039Y27709D01*
X445326Y28531D01*
X444674Y29403D01*
X444085Y30319D01*
X443563Y31274D01*
X443111Y32264D01*
X442731Y33284D01*
X442424Y34329D01*
X442193Y35392D01*
X442038Y36470D01*
X441960Y37556D01*
X441960Y38644D01*
X442038Y39730D01*
X442193Y40808D01*
X442424Y41871D01*
X442731Y42916D01*
X443111Y43936D01*
X443563Y44926D01*
X444085Y45881D01*
X444674Y46797D01*
X445326Y47669D01*
X446039Y48491D01*
X446809Y49261D01*
X447631Y49974D01*
X448503Y50626D01*
X449419Y51215D01*
X450374Y51737D01*
X451364Y52189D01*
X452384Y52569D01*
X453429Y52876D01*
X454492Y53107D01*
X455570Y53262D01*
X456656Y53340D01*
X457744Y53340D01*
X458830Y53262D01*
X459908Y53107D01*
X460971Y52876D01*
X462016Y52569D01*
X463036Y52189D01*
X464026Y51737D01*
X464981Y51215D01*
X465897Y50626D01*
X466769Y49974D01*
X467591Y49261D01*
X468361Y48491D01*
X469074Y47669D01*
X469726Y46797D01*
X470315Y45881D01*
X470837Y44926D01*
X471289Y43936D01*
X471669Y42916D01*
X471976Y41871D01*
X472207Y40808D01*
X472362Y39730D01*
X472440Y38644D01*
X472440Y37556D01*
X53340Y37556D02*
X53262Y36470D01*
X53107Y35392D01*
X52876Y34329D01*
X52569Y33284D01*
X52189Y32264D01*
X51737Y31274D01*
X51215Y30319D01*
X50626Y29403D01*
X49974Y28531D01*
X49261Y27709D01*
X48491Y26939D01*
X47669Y26226D01*
X46797Y25574D01*
X45881Y24985D01*
X44926Y24463D01*
X43936Y24011D01*
X42916Y23631D01*
X41871Y23324D01*
X40808Y23093D01*
X39730Y22938D01*
X38644Y22860D01*
X37556Y22860D01*
X36470Y22938D01*
X35392Y23093D01*
X34329Y23324D01*
X33284Y23631D01*
X32264Y24011D01*
X31274Y24463D01*
X30319Y24985D01*
X29403Y25574D01*
X28531Y26226D01*
X27709Y26939D01*
X26939Y27709D01*
X26226Y28531D01*
X25574Y29403D01*
X24985Y30319D01*
X24463Y31274D01*
X24011Y32264D01*
X23631Y33284D01*
X23324Y34329D01*
X23093Y35392D01*
X22938Y36470D01*
X22860Y37556D01*
X22860Y38644D01*
X22938Y39730D01*
X23093Y40808D01*
X23324Y41871D01*
X23631Y42916D01*
X24011Y43936D01*
X24463Y44926D01*
X24985Y45881D01*
X25574Y46797D01*
X26226Y47669D01*
X26939Y48491D01*
X27709Y49261D01*
X28531Y49974D01*
X29403Y50626D01*
X30319Y51215D01*
X31274Y51737D01*
X32264Y52189D01*
X33284Y52569D01*
X34329Y52876D01*
X35392Y53107D01*
X36470Y53262D01*
X37556Y53340D01*
X38644Y53340D01*
X39730Y53262D01*
X40808Y53107D01*
X41871Y52876D01*
X42916Y52569D01*
X43936Y52189D01*
X44926Y51737D01*
X45881Y51215D01*
X46797Y50626D01*
X47669Y49974D01*
X48491Y49261D01*
X49261Y48491D01*
X49974Y47669D01*
X50626Y46797D01*
X51215Y45881D01*
X51737Y44926D01*
X52189Y43936D01*
X52569Y42916D01*
X52876Y41871D01*
X53107Y40808D01*
X53262Y39730D01*
X53340Y38644D01*
X53340Y37556D01*
M02*
