G04 EAGLE Gerber X2 export*
%TF.Part,Single*%
%TF.FileFunction,Legend,Top,1*%
%TF.FilePolarity,Positive*%
%TF.GenerationSoftware,Autodesk,EAGLE,9.1.0*%
%TF.CreationDate,2018-12-10T23:06:03Z*%
G75*
%MOMM*%
%FSLAX34Y34*%
%LPD*%
%AMOC8*
5,1,8,0,0,1.08239X$1,22.5*%
G01*
%ADD10C,0.254000*%
%ADD11C,0.152400*%


D10*
X127000Y82550D02*
X177800Y82550D01*
X177800Y63500D01*
X177800Y19050D01*
X127000Y19050D01*
X127000Y63500D01*
X127000Y82550D01*
X127000Y63500D02*
X177800Y63500D01*
D11*
X143383Y130810D02*
X143383Y212090D01*
X104267Y130810D02*
X104269Y130688D01*
X104275Y130566D01*
X104285Y130444D01*
X104298Y130323D01*
X104316Y130202D01*
X104337Y130082D01*
X104363Y129962D01*
X104392Y129844D01*
X104424Y129726D01*
X104461Y129609D01*
X104501Y129494D01*
X104545Y129380D01*
X104593Y129268D01*
X104644Y129157D01*
X104699Y129048D01*
X104757Y128940D01*
X104819Y128835D01*
X104884Y128732D01*
X104952Y128630D01*
X105024Y128531D01*
X105098Y128435D01*
X105176Y128340D01*
X105257Y128249D01*
X105340Y128159D01*
X105426Y128073D01*
X105516Y127990D01*
X105607Y127909D01*
X105702Y127831D01*
X105798Y127757D01*
X105897Y127685D01*
X105999Y127617D01*
X106102Y127552D01*
X106207Y127490D01*
X106315Y127432D01*
X106424Y127377D01*
X106535Y127326D01*
X106647Y127278D01*
X106761Y127234D01*
X106876Y127194D01*
X106993Y127157D01*
X107111Y127125D01*
X107229Y127096D01*
X107349Y127070D01*
X107469Y127049D01*
X107590Y127031D01*
X107711Y127018D01*
X107833Y127008D01*
X107955Y127002D01*
X108077Y127000D01*
X143383Y212090D02*
X143381Y212212D01*
X143375Y212334D01*
X143365Y212456D01*
X143352Y212577D01*
X143334Y212698D01*
X143313Y212818D01*
X143287Y212938D01*
X143258Y213056D01*
X143226Y213174D01*
X143189Y213291D01*
X143149Y213406D01*
X143105Y213520D01*
X143057Y213632D01*
X143006Y213743D01*
X142951Y213852D01*
X142893Y213960D01*
X142831Y214065D01*
X142766Y214168D01*
X142698Y214270D01*
X142626Y214369D01*
X142552Y214465D01*
X142474Y214560D01*
X142393Y214651D01*
X142310Y214741D01*
X142224Y214827D01*
X142134Y214910D01*
X142043Y214991D01*
X141948Y215069D01*
X141852Y215143D01*
X141753Y215215D01*
X141651Y215283D01*
X141548Y215348D01*
X141443Y215410D01*
X141335Y215468D01*
X141226Y215523D01*
X141115Y215574D01*
X141003Y215622D01*
X140889Y215666D01*
X140774Y215706D01*
X140657Y215743D01*
X140539Y215775D01*
X140421Y215804D01*
X140301Y215830D01*
X140181Y215851D01*
X140060Y215869D01*
X139939Y215882D01*
X139817Y215892D01*
X139695Y215898D01*
X139573Y215900D01*
X143383Y130810D02*
X143381Y130688D01*
X143375Y130566D01*
X143365Y130444D01*
X143352Y130323D01*
X143334Y130202D01*
X143313Y130082D01*
X143287Y129962D01*
X143258Y129844D01*
X143226Y129726D01*
X143189Y129609D01*
X143149Y129494D01*
X143105Y129380D01*
X143057Y129268D01*
X143006Y129157D01*
X142951Y129048D01*
X142893Y128940D01*
X142831Y128835D01*
X142766Y128732D01*
X142698Y128630D01*
X142626Y128531D01*
X142552Y128435D01*
X142474Y128340D01*
X142393Y128249D01*
X142310Y128159D01*
X142224Y128073D01*
X142134Y127990D01*
X142043Y127909D01*
X141948Y127831D01*
X141852Y127757D01*
X141753Y127685D01*
X141651Y127617D01*
X141548Y127552D01*
X141443Y127490D01*
X141335Y127432D01*
X141226Y127377D01*
X141115Y127326D01*
X141003Y127278D01*
X140889Y127234D01*
X140774Y127194D01*
X140657Y127157D01*
X140539Y127125D01*
X140421Y127096D01*
X140301Y127070D01*
X140181Y127049D01*
X140060Y127031D01*
X139939Y127018D01*
X139817Y127008D01*
X139695Y127002D01*
X139573Y127000D01*
X104267Y212090D02*
X104269Y212212D01*
X104275Y212334D01*
X104285Y212456D01*
X104298Y212577D01*
X104316Y212698D01*
X104337Y212818D01*
X104363Y212938D01*
X104392Y213056D01*
X104424Y213174D01*
X104461Y213291D01*
X104501Y213406D01*
X104545Y213520D01*
X104593Y213632D01*
X104644Y213743D01*
X104699Y213852D01*
X104757Y213960D01*
X104819Y214065D01*
X104884Y214168D01*
X104952Y214270D01*
X105024Y214369D01*
X105098Y214465D01*
X105176Y214560D01*
X105257Y214651D01*
X105340Y214741D01*
X105426Y214827D01*
X105516Y214910D01*
X105607Y214991D01*
X105702Y215069D01*
X105798Y215143D01*
X105897Y215215D01*
X105999Y215283D01*
X106102Y215348D01*
X106207Y215410D01*
X106315Y215468D01*
X106424Y215523D01*
X106535Y215574D01*
X106647Y215622D01*
X106761Y215666D01*
X106876Y215706D01*
X106993Y215743D01*
X107111Y215775D01*
X107229Y215804D01*
X107349Y215830D01*
X107469Y215851D01*
X107590Y215869D01*
X107711Y215882D01*
X107833Y215892D01*
X107955Y215898D01*
X108077Y215900D01*
X104267Y212090D02*
X104267Y130810D01*
X108077Y127000D02*
X139573Y127000D01*
X139573Y215900D02*
X128905Y215900D01*
X118745Y215900D01*
X108077Y215900D01*
X118745Y215900D02*
X118747Y215759D01*
X118753Y215618D01*
X118763Y215477D01*
X118776Y215336D01*
X118794Y215196D01*
X118816Y215057D01*
X118841Y214918D01*
X118870Y214779D01*
X118903Y214642D01*
X118940Y214506D01*
X118981Y214371D01*
X119025Y214236D01*
X119073Y214104D01*
X119125Y213972D01*
X119180Y213842D01*
X119239Y213714D01*
X119302Y213587D01*
X119368Y213463D01*
X119437Y213340D01*
X119510Y213219D01*
X119586Y213100D01*
X119666Y212983D01*
X119749Y212869D01*
X119834Y212756D01*
X119923Y212647D01*
X120015Y212539D01*
X120110Y212435D01*
X120208Y212333D01*
X120309Y212234D01*
X120412Y212137D01*
X120518Y212044D01*
X120626Y211954D01*
X120737Y211866D01*
X120850Y211782D01*
X120966Y211701D01*
X121084Y211623D01*
X121204Y211548D01*
X121326Y211477D01*
X121450Y211409D01*
X121576Y211345D01*
X121703Y211284D01*
X121832Y211227D01*
X121963Y211174D01*
X122095Y211124D01*
X122228Y211077D01*
X122363Y211035D01*
X122499Y210996D01*
X122636Y210961D01*
X122773Y210930D01*
X122912Y210903D01*
X123051Y210879D01*
X123191Y210860D01*
X123331Y210844D01*
X123472Y210832D01*
X123613Y210824D01*
X123754Y210820D01*
X123896Y210820D01*
X124037Y210824D01*
X124178Y210832D01*
X124319Y210844D01*
X124459Y210860D01*
X124599Y210879D01*
X124738Y210903D01*
X124877Y210930D01*
X125014Y210961D01*
X125151Y210996D01*
X125287Y211035D01*
X125422Y211077D01*
X125555Y211124D01*
X125687Y211174D01*
X125818Y211227D01*
X125947Y211284D01*
X126074Y211345D01*
X126200Y211409D01*
X126324Y211477D01*
X126446Y211548D01*
X126566Y211623D01*
X126684Y211701D01*
X126800Y211782D01*
X126913Y211866D01*
X127024Y211954D01*
X127132Y212044D01*
X127238Y212137D01*
X127341Y212234D01*
X127442Y212333D01*
X127540Y212435D01*
X127635Y212539D01*
X127727Y212647D01*
X127816Y212756D01*
X127901Y212869D01*
X127984Y212983D01*
X128064Y213100D01*
X128140Y213219D01*
X128213Y213340D01*
X128282Y213463D01*
X128348Y213587D01*
X128411Y213714D01*
X128470Y213842D01*
X128525Y213972D01*
X128577Y214104D01*
X128625Y214236D01*
X128669Y214371D01*
X128710Y214506D01*
X128747Y214642D01*
X128780Y214779D01*
X128809Y214918D01*
X128834Y215057D01*
X128856Y215196D01*
X128874Y215336D01*
X128887Y215477D01*
X128897Y215618D01*
X128903Y215759D01*
X128905Y215900D01*
X107823Y215900D02*
X107823Y127000D01*
D10*
X82550Y158750D02*
X82550Y361950D01*
X82550Y158750D02*
X63500Y158750D01*
X19050Y158750D01*
X19050Y361950D01*
X63500Y361950D01*
X82550Y361950D01*
X63500Y361950D02*
X63500Y158750D01*
D11*
X270383Y130810D02*
X270383Y212090D01*
X231267Y130810D02*
X231269Y130688D01*
X231275Y130566D01*
X231285Y130444D01*
X231298Y130323D01*
X231316Y130202D01*
X231337Y130082D01*
X231363Y129962D01*
X231392Y129844D01*
X231424Y129726D01*
X231461Y129609D01*
X231501Y129494D01*
X231545Y129380D01*
X231593Y129268D01*
X231644Y129157D01*
X231699Y129048D01*
X231757Y128940D01*
X231819Y128835D01*
X231884Y128732D01*
X231952Y128630D01*
X232024Y128531D01*
X232098Y128435D01*
X232176Y128340D01*
X232257Y128249D01*
X232340Y128159D01*
X232426Y128073D01*
X232516Y127990D01*
X232607Y127909D01*
X232702Y127831D01*
X232798Y127757D01*
X232897Y127685D01*
X232999Y127617D01*
X233102Y127552D01*
X233207Y127490D01*
X233315Y127432D01*
X233424Y127377D01*
X233535Y127326D01*
X233647Y127278D01*
X233761Y127234D01*
X233876Y127194D01*
X233993Y127157D01*
X234111Y127125D01*
X234229Y127096D01*
X234349Y127070D01*
X234469Y127049D01*
X234590Y127031D01*
X234711Y127018D01*
X234833Y127008D01*
X234955Y127002D01*
X235077Y127000D01*
X270383Y212090D02*
X270381Y212212D01*
X270375Y212334D01*
X270365Y212456D01*
X270352Y212577D01*
X270334Y212698D01*
X270313Y212818D01*
X270287Y212938D01*
X270258Y213056D01*
X270226Y213174D01*
X270189Y213291D01*
X270149Y213406D01*
X270105Y213520D01*
X270057Y213632D01*
X270006Y213743D01*
X269951Y213852D01*
X269893Y213960D01*
X269831Y214065D01*
X269766Y214168D01*
X269698Y214270D01*
X269626Y214369D01*
X269552Y214465D01*
X269474Y214560D01*
X269393Y214651D01*
X269310Y214741D01*
X269224Y214827D01*
X269134Y214910D01*
X269043Y214991D01*
X268948Y215069D01*
X268852Y215143D01*
X268753Y215215D01*
X268651Y215283D01*
X268548Y215348D01*
X268443Y215410D01*
X268335Y215468D01*
X268226Y215523D01*
X268115Y215574D01*
X268003Y215622D01*
X267889Y215666D01*
X267774Y215706D01*
X267657Y215743D01*
X267539Y215775D01*
X267421Y215804D01*
X267301Y215830D01*
X267181Y215851D01*
X267060Y215869D01*
X266939Y215882D01*
X266817Y215892D01*
X266695Y215898D01*
X266573Y215900D01*
X270383Y130810D02*
X270381Y130688D01*
X270375Y130566D01*
X270365Y130444D01*
X270352Y130323D01*
X270334Y130202D01*
X270313Y130082D01*
X270287Y129962D01*
X270258Y129844D01*
X270226Y129726D01*
X270189Y129609D01*
X270149Y129494D01*
X270105Y129380D01*
X270057Y129268D01*
X270006Y129157D01*
X269951Y129048D01*
X269893Y128940D01*
X269831Y128835D01*
X269766Y128732D01*
X269698Y128630D01*
X269626Y128531D01*
X269552Y128435D01*
X269474Y128340D01*
X269393Y128249D01*
X269310Y128159D01*
X269224Y128073D01*
X269134Y127990D01*
X269043Y127909D01*
X268948Y127831D01*
X268852Y127757D01*
X268753Y127685D01*
X268651Y127617D01*
X268548Y127552D01*
X268443Y127490D01*
X268335Y127432D01*
X268226Y127377D01*
X268115Y127326D01*
X268003Y127278D01*
X267889Y127234D01*
X267774Y127194D01*
X267657Y127157D01*
X267539Y127125D01*
X267421Y127096D01*
X267301Y127070D01*
X267181Y127049D01*
X267060Y127031D01*
X266939Y127018D01*
X266817Y127008D01*
X266695Y127002D01*
X266573Y127000D01*
X231267Y212090D02*
X231269Y212212D01*
X231275Y212334D01*
X231285Y212456D01*
X231298Y212577D01*
X231316Y212698D01*
X231337Y212818D01*
X231363Y212938D01*
X231392Y213056D01*
X231424Y213174D01*
X231461Y213291D01*
X231501Y213406D01*
X231545Y213520D01*
X231593Y213632D01*
X231644Y213743D01*
X231699Y213852D01*
X231757Y213960D01*
X231819Y214065D01*
X231884Y214168D01*
X231952Y214270D01*
X232024Y214369D01*
X232098Y214465D01*
X232176Y214560D01*
X232257Y214651D01*
X232340Y214741D01*
X232426Y214827D01*
X232516Y214910D01*
X232607Y214991D01*
X232702Y215069D01*
X232798Y215143D01*
X232897Y215215D01*
X232999Y215283D01*
X233102Y215348D01*
X233207Y215410D01*
X233315Y215468D01*
X233424Y215523D01*
X233535Y215574D01*
X233647Y215622D01*
X233761Y215666D01*
X233876Y215706D01*
X233993Y215743D01*
X234111Y215775D01*
X234229Y215804D01*
X234349Y215830D01*
X234469Y215851D01*
X234590Y215869D01*
X234711Y215882D01*
X234833Y215892D01*
X234955Y215898D01*
X235077Y215900D01*
X231267Y212090D02*
X231267Y130810D01*
X235077Y127000D02*
X266573Y127000D01*
X266573Y215900D02*
X255905Y215900D01*
X245745Y215900D01*
X235077Y215900D01*
X245745Y215900D02*
X245747Y215759D01*
X245753Y215618D01*
X245763Y215477D01*
X245776Y215336D01*
X245794Y215196D01*
X245816Y215057D01*
X245841Y214918D01*
X245870Y214779D01*
X245903Y214642D01*
X245940Y214506D01*
X245981Y214371D01*
X246025Y214236D01*
X246073Y214104D01*
X246125Y213972D01*
X246180Y213842D01*
X246239Y213714D01*
X246302Y213587D01*
X246368Y213463D01*
X246437Y213340D01*
X246510Y213219D01*
X246586Y213100D01*
X246666Y212983D01*
X246749Y212869D01*
X246834Y212756D01*
X246923Y212647D01*
X247015Y212539D01*
X247110Y212435D01*
X247208Y212333D01*
X247309Y212234D01*
X247412Y212137D01*
X247518Y212044D01*
X247626Y211954D01*
X247737Y211866D01*
X247850Y211782D01*
X247966Y211701D01*
X248084Y211623D01*
X248204Y211548D01*
X248326Y211477D01*
X248450Y211409D01*
X248576Y211345D01*
X248703Y211284D01*
X248832Y211227D01*
X248963Y211174D01*
X249095Y211124D01*
X249228Y211077D01*
X249363Y211035D01*
X249499Y210996D01*
X249636Y210961D01*
X249773Y210930D01*
X249912Y210903D01*
X250051Y210879D01*
X250191Y210860D01*
X250331Y210844D01*
X250472Y210832D01*
X250613Y210824D01*
X250754Y210820D01*
X250896Y210820D01*
X251037Y210824D01*
X251178Y210832D01*
X251319Y210844D01*
X251459Y210860D01*
X251599Y210879D01*
X251738Y210903D01*
X251877Y210930D01*
X252014Y210961D01*
X252151Y210996D01*
X252287Y211035D01*
X252422Y211077D01*
X252555Y211124D01*
X252687Y211174D01*
X252818Y211227D01*
X252947Y211284D01*
X253074Y211345D01*
X253200Y211409D01*
X253324Y211477D01*
X253446Y211548D01*
X253566Y211623D01*
X253684Y211701D01*
X253800Y211782D01*
X253913Y211866D01*
X254024Y211954D01*
X254132Y212044D01*
X254238Y212137D01*
X254341Y212234D01*
X254442Y212333D01*
X254540Y212435D01*
X254635Y212539D01*
X254727Y212647D01*
X254816Y212756D01*
X254901Y212869D01*
X254984Y212983D01*
X255064Y213100D01*
X255140Y213219D01*
X255213Y213340D01*
X255282Y213463D01*
X255348Y213587D01*
X255411Y213714D01*
X255470Y213842D01*
X255525Y213972D01*
X255577Y214104D01*
X255625Y214236D01*
X255669Y214371D01*
X255710Y214506D01*
X255747Y214642D01*
X255780Y214779D01*
X255809Y214918D01*
X255834Y215057D01*
X255856Y215196D01*
X255874Y215336D01*
X255887Y215477D01*
X255897Y215618D01*
X255903Y215759D01*
X255905Y215900D01*
X234823Y215900D02*
X234823Y127000D01*
D10*
X254000Y82550D02*
X304800Y82550D01*
X304800Y63500D01*
X304800Y19050D01*
X254000Y19050D01*
X254000Y63500D01*
X254000Y82550D01*
X254000Y63500D02*
X304800Y63500D01*
D11*
X397383Y130810D02*
X397383Y212090D01*
X358267Y130810D02*
X358269Y130688D01*
X358275Y130566D01*
X358285Y130444D01*
X358298Y130323D01*
X358316Y130202D01*
X358337Y130082D01*
X358363Y129962D01*
X358392Y129844D01*
X358424Y129726D01*
X358461Y129609D01*
X358501Y129494D01*
X358545Y129380D01*
X358593Y129268D01*
X358644Y129157D01*
X358699Y129048D01*
X358757Y128940D01*
X358819Y128835D01*
X358884Y128732D01*
X358952Y128630D01*
X359024Y128531D01*
X359098Y128435D01*
X359176Y128340D01*
X359257Y128249D01*
X359340Y128159D01*
X359426Y128073D01*
X359516Y127990D01*
X359607Y127909D01*
X359702Y127831D01*
X359798Y127757D01*
X359897Y127685D01*
X359999Y127617D01*
X360102Y127552D01*
X360207Y127490D01*
X360315Y127432D01*
X360424Y127377D01*
X360535Y127326D01*
X360647Y127278D01*
X360761Y127234D01*
X360876Y127194D01*
X360993Y127157D01*
X361111Y127125D01*
X361229Y127096D01*
X361349Y127070D01*
X361469Y127049D01*
X361590Y127031D01*
X361711Y127018D01*
X361833Y127008D01*
X361955Y127002D01*
X362077Y127000D01*
X397383Y212090D02*
X397381Y212212D01*
X397375Y212334D01*
X397365Y212456D01*
X397352Y212577D01*
X397334Y212698D01*
X397313Y212818D01*
X397287Y212938D01*
X397258Y213056D01*
X397226Y213174D01*
X397189Y213291D01*
X397149Y213406D01*
X397105Y213520D01*
X397057Y213632D01*
X397006Y213743D01*
X396951Y213852D01*
X396893Y213960D01*
X396831Y214065D01*
X396766Y214168D01*
X396698Y214270D01*
X396626Y214369D01*
X396552Y214465D01*
X396474Y214560D01*
X396393Y214651D01*
X396310Y214741D01*
X396224Y214827D01*
X396134Y214910D01*
X396043Y214991D01*
X395948Y215069D01*
X395852Y215143D01*
X395753Y215215D01*
X395651Y215283D01*
X395548Y215348D01*
X395443Y215410D01*
X395335Y215468D01*
X395226Y215523D01*
X395115Y215574D01*
X395003Y215622D01*
X394889Y215666D01*
X394774Y215706D01*
X394657Y215743D01*
X394539Y215775D01*
X394421Y215804D01*
X394301Y215830D01*
X394181Y215851D01*
X394060Y215869D01*
X393939Y215882D01*
X393817Y215892D01*
X393695Y215898D01*
X393573Y215900D01*
X397383Y130810D02*
X397381Y130688D01*
X397375Y130566D01*
X397365Y130444D01*
X397352Y130323D01*
X397334Y130202D01*
X397313Y130082D01*
X397287Y129962D01*
X397258Y129844D01*
X397226Y129726D01*
X397189Y129609D01*
X397149Y129494D01*
X397105Y129380D01*
X397057Y129268D01*
X397006Y129157D01*
X396951Y129048D01*
X396893Y128940D01*
X396831Y128835D01*
X396766Y128732D01*
X396698Y128630D01*
X396626Y128531D01*
X396552Y128435D01*
X396474Y128340D01*
X396393Y128249D01*
X396310Y128159D01*
X396224Y128073D01*
X396134Y127990D01*
X396043Y127909D01*
X395948Y127831D01*
X395852Y127757D01*
X395753Y127685D01*
X395651Y127617D01*
X395548Y127552D01*
X395443Y127490D01*
X395335Y127432D01*
X395226Y127377D01*
X395115Y127326D01*
X395003Y127278D01*
X394889Y127234D01*
X394774Y127194D01*
X394657Y127157D01*
X394539Y127125D01*
X394421Y127096D01*
X394301Y127070D01*
X394181Y127049D01*
X394060Y127031D01*
X393939Y127018D01*
X393817Y127008D01*
X393695Y127002D01*
X393573Y127000D01*
X358267Y212090D02*
X358269Y212212D01*
X358275Y212334D01*
X358285Y212456D01*
X358298Y212577D01*
X358316Y212698D01*
X358337Y212818D01*
X358363Y212938D01*
X358392Y213056D01*
X358424Y213174D01*
X358461Y213291D01*
X358501Y213406D01*
X358545Y213520D01*
X358593Y213632D01*
X358644Y213743D01*
X358699Y213852D01*
X358757Y213960D01*
X358819Y214065D01*
X358884Y214168D01*
X358952Y214270D01*
X359024Y214369D01*
X359098Y214465D01*
X359176Y214560D01*
X359257Y214651D01*
X359340Y214741D01*
X359426Y214827D01*
X359516Y214910D01*
X359607Y214991D01*
X359702Y215069D01*
X359798Y215143D01*
X359897Y215215D01*
X359999Y215283D01*
X360102Y215348D01*
X360207Y215410D01*
X360315Y215468D01*
X360424Y215523D01*
X360535Y215574D01*
X360647Y215622D01*
X360761Y215666D01*
X360876Y215706D01*
X360993Y215743D01*
X361111Y215775D01*
X361229Y215804D01*
X361349Y215830D01*
X361469Y215851D01*
X361590Y215869D01*
X361711Y215882D01*
X361833Y215892D01*
X361955Y215898D01*
X362077Y215900D01*
X358267Y212090D02*
X358267Y130810D01*
X362077Y127000D02*
X393573Y127000D01*
X393573Y215900D02*
X382905Y215900D01*
X372745Y215900D01*
X362077Y215900D01*
X372745Y215900D02*
X372747Y215759D01*
X372753Y215618D01*
X372763Y215477D01*
X372776Y215336D01*
X372794Y215196D01*
X372816Y215057D01*
X372841Y214918D01*
X372870Y214779D01*
X372903Y214642D01*
X372940Y214506D01*
X372981Y214371D01*
X373025Y214236D01*
X373073Y214104D01*
X373125Y213972D01*
X373180Y213842D01*
X373239Y213714D01*
X373302Y213587D01*
X373368Y213463D01*
X373437Y213340D01*
X373510Y213219D01*
X373586Y213100D01*
X373666Y212983D01*
X373749Y212869D01*
X373834Y212756D01*
X373923Y212647D01*
X374015Y212539D01*
X374110Y212435D01*
X374208Y212333D01*
X374309Y212234D01*
X374412Y212137D01*
X374518Y212044D01*
X374626Y211954D01*
X374737Y211866D01*
X374850Y211782D01*
X374966Y211701D01*
X375084Y211623D01*
X375204Y211548D01*
X375326Y211477D01*
X375450Y211409D01*
X375576Y211345D01*
X375703Y211284D01*
X375832Y211227D01*
X375963Y211174D01*
X376095Y211124D01*
X376228Y211077D01*
X376363Y211035D01*
X376499Y210996D01*
X376636Y210961D01*
X376773Y210930D01*
X376912Y210903D01*
X377051Y210879D01*
X377191Y210860D01*
X377331Y210844D01*
X377472Y210832D01*
X377613Y210824D01*
X377754Y210820D01*
X377896Y210820D01*
X378037Y210824D01*
X378178Y210832D01*
X378319Y210844D01*
X378459Y210860D01*
X378599Y210879D01*
X378738Y210903D01*
X378877Y210930D01*
X379014Y210961D01*
X379151Y210996D01*
X379287Y211035D01*
X379422Y211077D01*
X379555Y211124D01*
X379687Y211174D01*
X379818Y211227D01*
X379947Y211284D01*
X380074Y211345D01*
X380200Y211409D01*
X380324Y211477D01*
X380446Y211548D01*
X380566Y211623D01*
X380684Y211701D01*
X380800Y211782D01*
X380913Y211866D01*
X381024Y211954D01*
X381132Y212044D01*
X381238Y212137D01*
X381341Y212234D01*
X381442Y212333D01*
X381540Y212435D01*
X381635Y212539D01*
X381727Y212647D01*
X381816Y212756D01*
X381901Y212869D01*
X381984Y212983D01*
X382064Y213100D01*
X382140Y213219D01*
X382213Y213340D01*
X382282Y213463D01*
X382348Y213587D01*
X382411Y213714D01*
X382470Y213842D01*
X382525Y213972D01*
X382577Y214104D01*
X382625Y214236D01*
X382669Y214371D01*
X382710Y214506D01*
X382747Y214642D01*
X382780Y214779D01*
X382809Y214918D01*
X382834Y215057D01*
X382856Y215196D01*
X382874Y215336D01*
X382887Y215477D01*
X382897Y215618D01*
X382903Y215759D01*
X382905Y215900D01*
X361823Y215900D02*
X361823Y127000D01*
D10*
X381000Y82550D02*
X431800Y82550D01*
X431800Y63500D01*
X431800Y19050D01*
X381000Y19050D01*
X381000Y63500D01*
X381000Y82550D01*
X381000Y63500D02*
X431800Y63500D01*
D11*
X361442Y308610D02*
X361442Y389890D01*
X396748Y393700D02*
X396870Y393698D01*
X396992Y393692D01*
X397114Y393682D01*
X397235Y393669D01*
X397356Y393651D01*
X397476Y393630D01*
X397596Y393604D01*
X397714Y393575D01*
X397832Y393543D01*
X397949Y393506D01*
X398064Y393466D01*
X398178Y393422D01*
X398290Y393374D01*
X398401Y393323D01*
X398510Y393268D01*
X398618Y393210D01*
X398723Y393148D01*
X398826Y393083D01*
X398928Y393015D01*
X399027Y392943D01*
X399123Y392869D01*
X399218Y392791D01*
X399309Y392710D01*
X399399Y392627D01*
X399485Y392541D01*
X399568Y392451D01*
X399649Y392360D01*
X399727Y392265D01*
X399801Y392169D01*
X399873Y392070D01*
X399941Y391968D01*
X400006Y391865D01*
X400068Y391760D01*
X400126Y391652D01*
X400181Y391543D01*
X400232Y391432D01*
X400280Y391320D01*
X400324Y391206D01*
X400364Y391091D01*
X400401Y390974D01*
X400433Y390856D01*
X400462Y390738D01*
X400488Y390618D01*
X400509Y390498D01*
X400527Y390377D01*
X400540Y390256D01*
X400550Y390134D01*
X400556Y390012D01*
X400558Y389890D01*
X361442Y308610D02*
X361444Y308488D01*
X361450Y308366D01*
X361460Y308244D01*
X361473Y308123D01*
X361491Y308002D01*
X361512Y307882D01*
X361538Y307762D01*
X361567Y307644D01*
X361599Y307526D01*
X361636Y307409D01*
X361676Y307294D01*
X361720Y307180D01*
X361768Y307068D01*
X361819Y306957D01*
X361874Y306848D01*
X361932Y306740D01*
X361994Y306635D01*
X362059Y306532D01*
X362127Y306430D01*
X362199Y306331D01*
X362273Y306235D01*
X362351Y306140D01*
X362432Y306049D01*
X362515Y305959D01*
X362601Y305873D01*
X362691Y305790D01*
X362782Y305709D01*
X362877Y305631D01*
X362973Y305557D01*
X363072Y305485D01*
X363174Y305417D01*
X363277Y305352D01*
X363382Y305290D01*
X363490Y305232D01*
X363599Y305177D01*
X363710Y305126D01*
X363822Y305078D01*
X363936Y305034D01*
X364051Y304994D01*
X364168Y304957D01*
X364286Y304925D01*
X364404Y304896D01*
X364524Y304870D01*
X364644Y304849D01*
X364765Y304831D01*
X364886Y304818D01*
X365008Y304808D01*
X365130Y304802D01*
X365252Y304800D01*
X361442Y389890D02*
X361444Y390012D01*
X361450Y390134D01*
X361460Y390256D01*
X361473Y390377D01*
X361491Y390498D01*
X361512Y390618D01*
X361538Y390738D01*
X361567Y390856D01*
X361599Y390974D01*
X361636Y391091D01*
X361676Y391206D01*
X361720Y391320D01*
X361768Y391432D01*
X361819Y391543D01*
X361874Y391652D01*
X361932Y391760D01*
X361994Y391865D01*
X362059Y391968D01*
X362127Y392070D01*
X362199Y392169D01*
X362273Y392265D01*
X362351Y392360D01*
X362432Y392451D01*
X362515Y392541D01*
X362601Y392627D01*
X362691Y392710D01*
X362782Y392791D01*
X362877Y392869D01*
X362973Y392943D01*
X363072Y393015D01*
X363174Y393083D01*
X363277Y393148D01*
X363382Y393210D01*
X363490Y393268D01*
X363599Y393323D01*
X363710Y393374D01*
X363822Y393422D01*
X363936Y393466D01*
X364051Y393506D01*
X364168Y393543D01*
X364286Y393575D01*
X364404Y393604D01*
X364524Y393630D01*
X364644Y393651D01*
X364765Y393669D01*
X364886Y393682D01*
X365008Y393692D01*
X365130Y393698D01*
X365252Y393700D01*
X400558Y308610D02*
X400556Y308488D01*
X400550Y308366D01*
X400540Y308244D01*
X400527Y308123D01*
X400509Y308002D01*
X400488Y307882D01*
X400462Y307762D01*
X400433Y307644D01*
X400401Y307526D01*
X400364Y307409D01*
X400324Y307294D01*
X400280Y307180D01*
X400232Y307068D01*
X400181Y306957D01*
X400126Y306848D01*
X400068Y306740D01*
X400006Y306635D01*
X399941Y306532D01*
X399873Y306430D01*
X399801Y306331D01*
X399727Y306235D01*
X399649Y306140D01*
X399568Y306049D01*
X399485Y305959D01*
X399399Y305873D01*
X399309Y305790D01*
X399218Y305709D01*
X399123Y305631D01*
X399027Y305557D01*
X398928Y305485D01*
X398826Y305417D01*
X398723Y305352D01*
X398618Y305290D01*
X398510Y305232D01*
X398401Y305177D01*
X398290Y305126D01*
X398178Y305078D01*
X398064Y305034D01*
X397949Y304994D01*
X397832Y304957D01*
X397714Y304925D01*
X397596Y304896D01*
X397476Y304870D01*
X397356Y304849D01*
X397235Y304831D01*
X397114Y304818D01*
X396992Y304808D01*
X396870Y304802D01*
X396748Y304800D01*
X400558Y308610D02*
X400558Y389890D01*
X396748Y393700D02*
X365252Y393700D01*
X365252Y304800D02*
X375920Y304800D01*
X386080Y304800D01*
X396748Y304800D01*
X386080Y304800D02*
X386078Y304941D01*
X386072Y305082D01*
X386062Y305223D01*
X386049Y305364D01*
X386031Y305504D01*
X386009Y305643D01*
X385984Y305782D01*
X385955Y305921D01*
X385922Y306058D01*
X385885Y306194D01*
X385844Y306329D01*
X385800Y306464D01*
X385752Y306596D01*
X385700Y306728D01*
X385645Y306858D01*
X385586Y306986D01*
X385523Y307113D01*
X385457Y307237D01*
X385388Y307360D01*
X385315Y307481D01*
X385239Y307600D01*
X385159Y307717D01*
X385076Y307831D01*
X384991Y307944D01*
X384902Y308053D01*
X384810Y308161D01*
X384715Y308265D01*
X384617Y308367D01*
X384516Y308466D01*
X384413Y308563D01*
X384307Y308656D01*
X384199Y308746D01*
X384088Y308834D01*
X383975Y308918D01*
X383859Y308999D01*
X383741Y309077D01*
X383621Y309152D01*
X383499Y309223D01*
X383375Y309291D01*
X383249Y309355D01*
X383122Y309416D01*
X382993Y309473D01*
X382862Y309526D01*
X382730Y309576D01*
X382597Y309623D01*
X382462Y309665D01*
X382326Y309704D01*
X382189Y309739D01*
X382052Y309770D01*
X381913Y309797D01*
X381774Y309821D01*
X381634Y309840D01*
X381494Y309856D01*
X381353Y309868D01*
X381212Y309876D01*
X381071Y309880D01*
X380929Y309880D01*
X380788Y309876D01*
X380647Y309868D01*
X380506Y309856D01*
X380366Y309840D01*
X380226Y309821D01*
X380087Y309797D01*
X379948Y309770D01*
X379811Y309739D01*
X379674Y309704D01*
X379538Y309665D01*
X379403Y309623D01*
X379270Y309576D01*
X379138Y309526D01*
X379007Y309473D01*
X378878Y309416D01*
X378751Y309355D01*
X378625Y309291D01*
X378501Y309223D01*
X378379Y309152D01*
X378259Y309077D01*
X378141Y308999D01*
X378025Y308918D01*
X377912Y308834D01*
X377801Y308746D01*
X377693Y308656D01*
X377587Y308563D01*
X377484Y308466D01*
X377383Y308367D01*
X377285Y308265D01*
X377190Y308161D01*
X377098Y308053D01*
X377009Y307944D01*
X376924Y307831D01*
X376841Y307717D01*
X376761Y307600D01*
X376685Y307481D01*
X376612Y307360D01*
X376543Y307237D01*
X376477Y307113D01*
X376414Y306986D01*
X376355Y306858D01*
X376300Y306728D01*
X376248Y306596D01*
X376200Y306464D01*
X376156Y306329D01*
X376115Y306194D01*
X376078Y306058D01*
X376045Y305921D01*
X376016Y305782D01*
X375991Y305643D01*
X375969Y305504D01*
X375951Y305364D01*
X375938Y305223D01*
X375928Y305082D01*
X375922Y304941D01*
X375920Y304800D01*
X397002Y304800D02*
X397002Y393700D01*
D10*
X381000Y438150D02*
X330200Y438150D01*
X330200Y457200D01*
X330200Y501650D01*
X381000Y501650D01*
X381000Y457200D01*
X381000Y438150D01*
X381000Y457200D02*
X330200Y457200D01*
D11*
X234442Y389890D02*
X234442Y308610D01*
X273558Y389890D02*
X273556Y390012D01*
X273550Y390134D01*
X273540Y390256D01*
X273527Y390377D01*
X273509Y390498D01*
X273488Y390618D01*
X273462Y390738D01*
X273433Y390856D01*
X273401Y390974D01*
X273364Y391091D01*
X273324Y391206D01*
X273280Y391320D01*
X273232Y391432D01*
X273181Y391543D01*
X273126Y391652D01*
X273068Y391760D01*
X273006Y391865D01*
X272941Y391968D01*
X272873Y392070D01*
X272801Y392169D01*
X272727Y392265D01*
X272649Y392360D01*
X272568Y392451D01*
X272485Y392541D01*
X272399Y392627D01*
X272309Y392710D01*
X272218Y392791D01*
X272123Y392869D01*
X272027Y392943D01*
X271928Y393015D01*
X271826Y393083D01*
X271723Y393148D01*
X271618Y393210D01*
X271510Y393268D01*
X271401Y393323D01*
X271290Y393374D01*
X271178Y393422D01*
X271064Y393466D01*
X270949Y393506D01*
X270832Y393543D01*
X270714Y393575D01*
X270596Y393604D01*
X270476Y393630D01*
X270356Y393651D01*
X270235Y393669D01*
X270114Y393682D01*
X269992Y393692D01*
X269870Y393698D01*
X269748Y393700D01*
X234442Y308610D02*
X234444Y308488D01*
X234450Y308366D01*
X234460Y308244D01*
X234473Y308123D01*
X234491Y308002D01*
X234512Y307882D01*
X234538Y307762D01*
X234567Y307644D01*
X234599Y307526D01*
X234636Y307409D01*
X234676Y307294D01*
X234720Y307180D01*
X234768Y307068D01*
X234819Y306957D01*
X234874Y306848D01*
X234932Y306740D01*
X234994Y306635D01*
X235059Y306532D01*
X235127Y306430D01*
X235199Y306331D01*
X235273Y306235D01*
X235351Y306140D01*
X235432Y306049D01*
X235515Y305959D01*
X235601Y305873D01*
X235691Y305790D01*
X235782Y305709D01*
X235877Y305631D01*
X235973Y305557D01*
X236072Y305485D01*
X236174Y305417D01*
X236277Y305352D01*
X236382Y305290D01*
X236490Y305232D01*
X236599Y305177D01*
X236710Y305126D01*
X236822Y305078D01*
X236936Y305034D01*
X237051Y304994D01*
X237168Y304957D01*
X237286Y304925D01*
X237404Y304896D01*
X237524Y304870D01*
X237644Y304849D01*
X237765Y304831D01*
X237886Y304818D01*
X238008Y304808D01*
X238130Y304802D01*
X238252Y304800D01*
X234442Y389890D02*
X234444Y390012D01*
X234450Y390134D01*
X234460Y390256D01*
X234473Y390377D01*
X234491Y390498D01*
X234512Y390618D01*
X234538Y390738D01*
X234567Y390856D01*
X234599Y390974D01*
X234636Y391091D01*
X234676Y391206D01*
X234720Y391320D01*
X234768Y391432D01*
X234819Y391543D01*
X234874Y391652D01*
X234932Y391760D01*
X234994Y391865D01*
X235059Y391968D01*
X235127Y392070D01*
X235199Y392169D01*
X235273Y392265D01*
X235351Y392360D01*
X235432Y392451D01*
X235515Y392541D01*
X235601Y392627D01*
X235691Y392710D01*
X235782Y392791D01*
X235877Y392869D01*
X235973Y392943D01*
X236072Y393015D01*
X236174Y393083D01*
X236277Y393148D01*
X236382Y393210D01*
X236490Y393268D01*
X236599Y393323D01*
X236710Y393374D01*
X236822Y393422D01*
X236936Y393466D01*
X237051Y393506D01*
X237168Y393543D01*
X237286Y393575D01*
X237404Y393604D01*
X237524Y393630D01*
X237644Y393651D01*
X237765Y393669D01*
X237886Y393682D01*
X238008Y393692D01*
X238130Y393698D01*
X238252Y393700D01*
X273558Y308610D02*
X273556Y308488D01*
X273550Y308366D01*
X273540Y308244D01*
X273527Y308123D01*
X273509Y308002D01*
X273488Y307882D01*
X273462Y307762D01*
X273433Y307644D01*
X273401Y307526D01*
X273364Y307409D01*
X273324Y307294D01*
X273280Y307180D01*
X273232Y307068D01*
X273181Y306957D01*
X273126Y306848D01*
X273068Y306740D01*
X273006Y306635D01*
X272941Y306532D01*
X272873Y306430D01*
X272801Y306331D01*
X272727Y306235D01*
X272649Y306140D01*
X272568Y306049D01*
X272485Y305959D01*
X272399Y305873D01*
X272309Y305790D01*
X272218Y305709D01*
X272123Y305631D01*
X272027Y305557D01*
X271928Y305485D01*
X271826Y305417D01*
X271723Y305352D01*
X271618Y305290D01*
X271510Y305232D01*
X271401Y305177D01*
X271290Y305126D01*
X271178Y305078D01*
X271064Y305034D01*
X270949Y304994D01*
X270832Y304957D01*
X270714Y304925D01*
X270596Y304896D01*
X270476Y304870D01*
X270356Y304849D01*
X270235Y304831D01*
X270114Y304818D01*
X269992Y304808D01*
X269870Y304802D01*
X269748Y304800D01*
X273558Y308610D02*
X273558Y389890D01*
X269748Y393700D02*
X238252Y393700D01*
X238252Y304800D02*
X248920Y304800D01*
X259080Y304800D01*
X269748Y304800D01*
X259080Y304800D02*
X259078Y304941D01*
X259072Y305082D01*
X259062Y305223D01*
X259049Y305364D01*
X259031Y305504D01*
X259009Y305643D01*
X258984Y305782D01*
X258955Y305921D01*
X258922Y306058D01*
X258885Y306194D01*
X258844Y306329D01*
X258800Y306464D01*
X258752Y306596D01*
X258700Y306728D01*
X258645Y306858D01*
X258586Y306986D01*
X258523Y307113D01*
X258457Y307237D01*
X258388Y307360D01*
X258315Y307481D01*
X258239Y307600D01*
X258159Y307717D01*
X258076Y307831D01*
X257991Y307944D01*
X257902Y308053D01*
X257810Y308161D01*
X257715Y308265D01*
X257617Y308367D01*
X257516Y308466D01*
X257413Y308563D01*
X257307Y308656D01*
X257199Y308746D01*
X257088Y308834D01*
X256975Y308918D01*
X256859Y308999D01*
X256741Y309077D01*
X256621Y309152D01*
X256499Y309223D01*
X256375Y309291D01*
X256249Y309355D01*
X256122Y309416D01*
X255993Y309473D01*
X255862Y309526D01*
X255730Y309576D01*
X255597Y309623D01*
X255462Y309665D01*
X255326Y309704D01*
X255189Y309739D01*
X255052Y309770D01*
X254913Y309797D01*
X254774Y309821D01*
X254634Y309840D01*
X254494Y309856D01*
X254353Y309868D01*
X254212Y309876D01*
X254071Y309880D01*
X253929Y309880D01*
X253788Y309876D01*
X253647Y309868D01*
X253506Y309856D01*
X253366Y309840D01*
X253226Y309821D01*
X253087Y309797D01*
X252948Y309770D01*
X252811Y309739D01*
X252674Y309704D01*
X252538Y309665D01*
X252403Y309623D01*
X252270Y309576D01*
X252138Y309526D01*
X252007Y309473D01*
X251878Y309416D01*
X251751Y309355D01*
X251625Y309291D01*
X251501Y309223D01*
X251379Y309152D01*
X251259Y309077D01*
X251141Y308999D01*
X251025Y308918D01*
X250912Y308834D01*
X250801Y308746D01*
X250693Y308656D01*
X250587Y308563D01*
X250484Y308466D01*
X250383Y308367D01*
X250285Y308265D01*
X250190Y308161D01*
X250098Y308053D01*
X250009Y307944D01*
X249924Y307831D01*
X249841Y307717D01*
X249761Y307600D01*
X249685Y307481D01*
X249612Y307360D01*
X249543Y307237D01*
X249477Y307113D01*
X249414Y306986D01*
X249355Y306858D01*
X249300Y306728D01*
X249248Y306596D01*
X249200Y306464D01*
X249156Y306329D01*
X249115Y306194D01*
X249078Y306058D01*
X249045Y305921D01*
X249016Y305782D01*
X248991Y305643D01*
X248969Y305504D01*
X248951Y305364D01*
X248938Y305223D01*
X248928Y305082D01*
X248922Y304941D01*
X248920Y304800D01*
X270002Y304800D02*
X270002Y393700D01*
D10*
X254000Y438150D02*
X203200Y438150D01*
X203200Y457200D01*
X203200Y501650D01*
X254000Y501650D01*
X254000Y457200D01*
X254000Y438150D01*
X254000Y457200D02*
X203200Y457200D01*
D11*
X107442Y389890D02*
X107442Y308610D01*
X146558Y389890D02*
X146556Y390012D01*
X146550Y390134D01*
X146540Y390256D01*
X146527Y390377D01*
X146509Y390498D01*
X146488Y390618D01*
X146462Y390738D01*
X146433Y390856D01*
X146401Y390974D01*
X146364Y391091D01*
X146324Y391206D01*
X146280Y391320D01*
X146232Y391432D01*
X146181Y391543D01*
X146126Y391652D01*
X146068Y391760D01*
X146006Y391865D01*
X145941Y391968D01*
X145873Y392070D01*
X145801Y392169D01*
X145727Y392265D01*
X145649Y392360D01*
X145568Y392451D01*
X145485Y392541D01*
X145399Y392627D01*
X145309Y392710D01*
X145218Y392791D01*
X145123Y392869D01*
X145027Y392943D01*
X144928Y393015D01*
X144826Y393083D01*
X144723Y393148D01*
X144618Y393210D01*
X144510Y393268D01*
X144401Y393323D01*
X144290Y393374D01*
X144178Y393422D01*
X144064Y393466D01*
X143949Y393506D01*
X143832Y393543D01*
X143714Y393575D01*
X143596Y393604D01*
X143476Y393630D01*
X143356Y393651D01*
X143235Y393669D01*
X143114Y393682D01*
X142992Y393692D01*
X142870Y393698D01*
X142748Y393700D01*
X107442Y308610D02*
X107444Y308488D01*
X107450Y308366D01*
X107460Y308244D01*
X107473Y308123D01*
X107491Y308002D01*
X107512Y307882D01*
X107538Y307762D01*
X107567Y307644D01*
X107599Y307526D01*
X107636Y307409D01*
X107676Y307294D01*
X107720Y307180D01*
X107768Y307068D01*
X107819Y306957D01*
X107874Y306848D01*
X107932Y306740D01*
X107994Y306635D01*
X108059Y306532D01*
X108127Y306430D01*
X108199Y306331D01*
X108273Y306235D01*
X108351Y306140D01*
X108432Y306049D01*
X108515Y305959D01*
X108601Y305873D01*
X108691Y305790D01*
X108782Y305709D01*
X108877Y305631D01*
X108973Y305557D01*
X109072Y305485D01*
X109174Y305417D01*
X109277Y305352D01*
X109382Y305290D01*
X109490Y305232D01*
X109599Y305177D01*
X109710Y305126D01*
X109822Y305078D01*
X109936Y305034D01*
X110051Y304994D01*
X110168Y304957D01*
X110286Y304925D01*
X110404Y304896D01*
X110524Y304870D01*
X110644Y304849D01*
X110765Y304831D01*
X110886Y304818D01*
X111008Y304808D01*
X111130Y304802D01*
X111252Y304800D01*
X107442Y389890D02*
X107444Y390012D01*
X107450Y390134D01*
X107460Y390256D01*
X107473Y390377D01*
X107491Y390498D01*
X107512Y390618D01*
X107538Y390738D01*
X107567Y390856D01*
X107599Y390974D01*
X107636Y391091D01*
X107676Y391206D01*
X107720Y391320D01*
X107768Y391432D01*
X107819Y391543D01*
X107874Y391652D01*
X107932Y391760D01*
X107994Y391865D01*
X108059Y391968D01*
X108127Y392070D01*
X108199Y392169D01*
X108273Y392265D01*
X108351Y392360D01*
X108432Y392451D01*
X108515Y392541D01*
X108601Y392627D01*
X108691Y392710D01*
X108782Y392791D01*
X108877Y392869D01*
X108973Y392943D01*
X109072Y393015D01*
X109174Y393083D01*
X109277Y393148D01*
X109382Y393210D01*
X109490Y393268D01*
X109599Y393323D01*
X109710Y393374D01*
X109822Y393422D01*
X109936Y393466D01*
X110051Y393506D01*
X110168Y393543D01*
X110286Y393575D01*
X110404Y393604D01*
X110524Y393630D01*
X110644Y393651D01*
X110765Y393669D01*
X110886Y393682D01*
X111008Y393692D01*
X111130Y393698D01*
X111252Y393700D01*
X146558Y308610D02*
X146556Y308488D01*
X146550Y308366D01*
X146540Y308244D01*
X146527Y308123D01*
X146509Y308002D01*
X146488Y307882D01*
X146462Y307762D01*
X146433Y307644D01*
X146401Y307526D01*
X146364Y307409D01*
X146324Y307294D01*
X146280Y307180D01*
X146232Y307068D01*
X146181Y306957D01*
X146126Y306848D01*
X146068Y306740D01*
X146006Y306635D01*
X145941Y306532D01*
X145873Y306430D01*
X145801Y306331D01*
X145727Y306235D01*
X145649Y306140D01*
X145568Y306049D01*
X145485Y305959D01*
X145399Y305873D01*
X145309Y305790D01*
X145218Y305709D01*
X145123Y305631D01*
X145027Y305557D01*
X144928Y305485D01*
X144826Y305417D01*
X144723Y305352D01*
X144618Y305290D01*
X144510Y305232D01*
X144401Y305177D01*
X144290Y305126D01*
X144178Y305078D01*
X144064Y305034D01*
X143949Y304994D01*
X143832Y304957D01*
X143714Y304925D01*
X143596Y304896D01*
X143476Y304870D01*
X143356Y304849D01*
X143235Y304831D01*
X143114Y304818D01*
X142992Y304808D01*
X142870Y304802D01*
X142748Y304800D01*
X146558Y308610D02*
X146558Y389890D01*
X142748Y393700D02*
X111252Y393700D01*
X111252Y304800D02*
X121920Y304800D01*
X132080Y304800D01*
X142748Y304800D01*
X132080Y304800D02*
X132078Y304941D01*
X132072Y305082D01*
X132062Y305223D01*
X132049Y305364D01*
X132031Y305504D01*
X132009Y305643D01*
X131984Y305782D01*
X131955Y305921D01*
X131922Y306058D01*
X131885Y306194D01*
X131844Y306329D01*
X131800Y306464D01*
X131752Y306596D01*
X131700Y306728D01*
X131645Y306858D01*
X131586Y306986D01*
X131523Y307113D01*
X131457Y307237D01*
X131388Y307360D01*
X131315Y307481D01*
X131239Y307600D01*
X131159Y307717D01*
X131076Y307831D01*
X130991Y307944D01*
X130902Y308053D01*
X130810Y308161D01*
X130715Y308265D01*
X130617Y308367D01*
X130516Y308466D01*
X130413Y308563D01*
X130307Y308656D01*
X130199Y308746D01*
X130088Y308834D01*
X129975Y308918D01*
X129859Y308999D01*
X129741Y309077D01*
X129621Y309152D01*
X129499Y309223D01*
X129375Y309291D01*
X129249Y309355D01*
X129122Y309416D01*
X128993Y309473D01*
X128862Y309526D01*
X128730Y309576D01*
X128597Y309623D01*
X128462Y309665D01*
X128326Y309704D01*
X128189Y309739D01*
X128052Y309770D01*
X127913Y309797D01*
X127774Y309821D01*
X127634Y309840D01*
X127494Y309856D01*
X127353Y309868D01*
X127212Y309876D01*
X127071Y309880D01*
X126929Y309880D01*
X126788Y309876D01*
X126647Y309868D01*
X126506Y309856D01*
X126366Y309840D01*
X126226Y309821D01*
X126087Y309797D01*
X125948Y309770D01*
X125811Y309739D01*
X125674Y309704D01*
X125538Y309665D01*
X125403Y309623D01*
X125270Y309576D01*
X125138Y309526D01*
X125007Y309473D01*
X124878Y309416D01*
X124751Y309355D01*
X124625Y309291D01*
X124501Y309223D01*
X124379Y309152D01*
X124259Y309077D01*
X124141Y308999D01*
X124025Y308918D01*
X123912Y308834D01*
X123801Y308746D01*
X123693Y308656D01*
X123587Y308563D01*
X123484Y308466D01*
X123383Y308367D01*
X123285Y308265D01*
X123190Y308161D01*
X123098Y308053D01*
X123009Y307944D01*
X122924Y307831D01*
X122841Y307717D01*
X122761Y307600D01*
X122685Y307481D01*
X122612Y307360D01*
X122543Y307237D01*
X122477Y307113D01*
X122414Y306986D01*
X122355Y306858D01*
X122300Y306728D01*
X122248Y306596D01*
X122200Y306464D01*
X122156Y306329D01*
X122115Y306194D01*
X122078Y306058D01*
X122045Y305921D01*
X122016Y305782D01*
X121991Y305643D01*
X121969Y305504D01*
X121951Y305364D01*
X121938Y305223D01*
X121928Y305082D01*
X121922Y304941D01*
X121920Y304800D01*
X143002Y304800D02*
X143002Y393700D01*
D10*
X127000Y438150D02*
X76200Y438150D01*
X76200Y457200D01*
X76200Y501650D01*
X127000Y501650D01*
X127000Y457200D01*
X127000Y438150D01*
X127000Y457200D02*
X76200Y457200D01*
M02*
