G04 EAGLE Gerber X2 export*
%TF.Part,Single*%
%TF.FileFunction,Soldermask,Bot,1*%
%TF.FilePolarity,Negative*%
%TF.GenerationSoftware,Autodesk,EAGLE,9.1.0*%
%TF.CreationDate,2018-12-10T23:06:03Z*%
G75*
%MOMM*%
%FSLAX34Y34*%
%LPD*%
%AMOC8*
5,1,8,0,0,1.08239X$1,22.5*%
G01*
%ADD10C,3.175000*%
%ADD11C,1.627000*%
%ADD12C,1.102000*%


D10*
X38100Y482600D03*
X457200Y482600D03*
X457200Y38100D03*
X38100Y38100D03*
D11*
X139700Y43300D02*
X139700Y58300D01*
X165100Y58300D02*
X165100Y43300D01*
X58300Y349250D02*
X43300Y349250D01*
X43300Y323850D02*
X58300Y323850D01*
X58300Y298450D02*
X43300Y298450D01*
X43300Y273050D02*
X58300Y273050D01*
X58300Y247650D02*
X43300Y247650D01*
X43300Y222250D02*
X58300Y222250D01*
X58300Y196850D02*
X43300Y196850D01*
X43300Y171450D02*
X58300Y171450D01*
X266700Y58300D02*
X266700Y43300D01*
X292100Y43300D02*
X292100Y58300D01*
X393700Y58300D02*
X393700Y43300D01*
X419100Y43300D02*
X419100Y58300D01*
X368300Y462400D02*
X368300Y477400D01*
X342900Y477400D02*
X342900Y462400D01*
X241300Y462400D02*
X241300Y477400D01*
X215900Y477400D02*
X215900Y462400D01*
X114300Y462400D02*
X114300Y477400D01*
X88900Y477400D02*
X88900Y462400D01*
D12*
X177800Y139700D03*
X304800Y139700D03*
X431800Y139700D03*
X330200Y381000D03*
X203200Y381000D03*
X76200Y381000D03*
M02*
