G04 EAGLE Gerber X2 export*
%TF.Part,Single*%
%TF.FileFunction,Paste,Top*%
%TF.FilePolarity,Positive*%
%TF.GenerationSoftware,Autodesk,EAGLE,9.1.0*%
%TF.CreationDate,2018-12-10T23:06:03Z*%
G75*
%MOMM*%
%FSLAX34Y34*%
%LPD*%
%AMOC8*
5,1,8,0,0,1.08239X$1,22.5*%
G01*
%ADD10R,2.032000X0.660400*%
%ADD11R,1.600000X1.803000*%
%ADD12R,1.803000X1.600000*%
%ADD13R,1.000000X1.100000*%
%ADD14R,1.100000X1.000000*%


D10*
X93091Y209550D03*
X154559Y209550D03*
X93091Y196850D03*
X93091Y184150D03*
X154559Y196850D03*
X154559Y184150D03*
X93091Y171450D03*
X154559Y171450D03*
X93091Y158750D03*
X93091Y146050D03*
X154559Y158750D03*
X154559Y146050D03*
X93091Y133350D03*
X154559Y133350D03*
D11*
X166620Y234950D03*
X138180Y234950D03*
D12*
X155575Y112645D03*
X155575Y84205D03*
D11*
X112645Y234950D03*
X84205Y234950D03*
X131695Y111125D03*
X103255Y111125D03*
D13*
X80400Y76200D03*
X97400Y76200D03*
D14*
X88900Y59300D03*
X88900Y42300D03*
X114300Y59300D03*
X114300Y42300D03*
D10*
X220091Y209550D03*
X281559Y209550D03*
X220091Y196850D03*
X220091Y184150D03*
X281559Y196850D03*
X281559Y184150D03*
X220091Y171450D03*
X281559Y171450D03*
X220091Y158750D03*
X220091Y146050D03*
X281559Y158750D03*
X281559Y146050D03*
X220091Y133350D03*
X281559Y133350D03*
D11*
X293620Y234950D03*
X265180Y234950D03*
D12*
X282575Y112645D03*
X282575Y84205D03*
D11*
X239645Y234950D03*
X211205Y234950D03*
X258695Y111125D03*
X230255Y111125D03*
D13*
X207400Y76200D03*
X224400Y76200D03*
D14*
X215900Y59300D03*
X215900Y42300D03*
X241300Y59300D03*
X241300Y42300D03*
D10*
X347091Y209550D03*
X408559Y209550D03*
X347091Y196850D03*
X347091Y184150D03*
X408559Y196850D03*
X408559Y184150D03*
X347091Y171450D03*
X408559Y171450D03*
X347091Y158750D03*
X347091Y146050D03*
X408559Y158750D03*
X408559Y146050D03*
X347091Y133350D03*
X408559Y133350D03*
D11*
X420620Y234950D03*
X392180Y234950D03*
D12*
X409575Y112645D03*
X409575Y84205D03*
D11*
X366645Y234950D03*
X338205Y234950D03*
X385695Y111125D03*
X357255Y111125D03*
D13*
X334400Y76200D03*
X351400Y76200D03*
D14*
X342900Y59300D03*
X342900Y42300D03*
X368300Y59300D03*
X368300Y42300D03*
D10*
X411734Y311150D03*
X350266Y311150D03*
X411734Y323850D03*
X411734Y336550D03*
X350266Y323850D03*
X350266Y336550D03*
X411734Y349250D03*
X350266Y349250D03*
X411734Y361950D03*
X411734Y374650D03*
X350266Y361950D03*
X350266Y374650D03*
X411734Y387350D03*
X350266Y387350D03*
D11*
X338205Y285750D03*
X366645Y285750D03*
D12*
X352425Y408055D03*
X352425Y436495D03*
D11*
X392180Y285750D03*
X420620Y285750D03*
X376305Y409575D03*
X404745Y409575D03*
D13*
X427600Y444500D03*
X410600Y444500D03*
D14*
X419100Y461400D03*
X419100Y478400D03*
X393700Y461400D03*
X393700Y478400D03*
D10*
X284734Y311150D03*
X223266Y311150D03*
X284734Y323850D03*
X284734Y336550D03*
X223266Y323850D03*
X223266Y336550D03*
X284734Y349250D03*
X223266Y349250D03*
X284734Y361950D03*
X284734Y374650D03*
X223266Y361950D03*
X223266Y374650D03*
X284734Y387350D03*
X223266Y387350D03*
D11*
X211205Y285750D03*
X239645Y285750D03*
D12*
X225425Y408055D03*
X225425Y436495D03*
D11*
X265180Y285750D03*
X293620Y285750D03*
X249305Y409575D03*
X277745Y409575D03*
D13*
X300600Y444500D03*
X283600Y444500D03*
D14*
X292100Y461400D03*
X292100Y478400D03*
X266700Y461400D03*
X266700Y478400D03*
D10*
X157734Y311150D03*
X96266Y311150D03*
X157734Y323850D03*
X157734Y336550D03*
X96266Y323850D03*
X96266Y336550D03*
X157734Y349250D03*
X96266Y349250D03*
X157734Y361950D03*
X157734Y374650D03*
X96266Y361950D03*
X96266Y374650D03*
X157734Y387350D03*
X96266Y387350D03*
D11*
X84205Y285750D03*
X112645Y285750D03*
D12*
X98425Y408055D03*
X98425Y436495D03*
D11*
X138180Y285750D03*
X166620Y285750D03*
X122305Y409575D03*
X150745Y409575D03*
D13*
X173600Y444500D03*
X156600Y444500D03*
D14*
X165100Y461400D03*
X165100Y478400D03*
X139700Y461400D03*
X139700Y478400D03*
M02*
